<svg xmlns="http://www.w3.org/2000/svg" xmlns:xlink="http://www.w3.org/1999/xlink" width="26.00000762939453" height="26.000015258789062" viewBox="0 0 26.00000762939453 26.000015258789062" fill="none">
    <g opacity="0.4">
        <path d="M26 13C26 5.82031 20.1797 1.52588e-05 13 1.52588e-05C5.8203 1.52588e-05 0 5.82031 0 13C0 20.1797 5.8203 26 13 26C20.1797 26 26 20.1797 26 13Z" fill-rule="evenodd"  fill="#E5E5E5" >
        </path>
    </g>
    <path d="M11.265 7.8939C12.6803 7.89364 14.0956 7.89444 15.5106 7.89364C15.3131 6.82268 15.1034 5.75359 14.8971 4.68424C13.88 4.49745 12.8308 4.50843 11.8145 4.69388C11.6316 5.76055 11.4415 6.82616 11.265 7.8939Z" fill-rule="evenodd"  fill="#F0B000" >
    </path>
    <path d="M16.1324 7.76759C17.0773 7.38545 18.0243 7.00919 18.9697 6.62812C17.9924 5.77794 16.8168 5.1587 15.5669 4.83302C15.7591 5.81059 15.9386 6.79056 16.1324 7.76759Z" fill-rule="evenodd"  fill="#F0B000" >
    </path>
    <path d="M10.6403 7.77133C10.8155 6.79885 10.978 5.82423 11.1484 4.85095C9.92162 5.18091 8.7718 5.7956 7.80808 6.62839C8.75136 7.01106 9.69755 7.38705 10.6403 7.77133Z" fill-rule="evenodd"  fill="#F0B000" >
    </path>
    <path d="M8.53339 10.1303C9.10844 9.56028 9.67313 8.9793 10.2468 8.40797C10.2739 8.38094 10.2946 8.34856 10.3143 8.31591C9.32268 7.92815 8.33959 7.51845 7.34959 7.12694C7.7449 8.12752 8.14047 9.12836 8.53339 10.1303Z" fill-rule="evenodd"  fill="#F0B000" >
    </path>
    <path d="M18.2393 10.1279C18.6376 9.12702 19.0334 8.12537 19.4316 7.12453C18.4371 7.52647 17.4399 7.92172 16.4478 8.32875C17.0531 8.92016 17.6425 9.52789 18.2393 10.1279Z" fill-rule="evenodd"  fill="#F0B000" >
    </path>
    <path d="M18.9545 10.0329C18.903 10.1715 18.8372 10.3053 18.8 10.4493C19.7632 10.6149 20.7261 10.7822 21.688 10.9569C21.362 9.71951 20.7537 8.55703 19.9244 7.58749C19.6013 8.40262 19.2779 9.21775 18.9545 10.0329Z" fill-rule="evenodd"  fill="#F0B000" >
    </path>
    <path d="M7.97667 10.4565C7.91959 10.2603 7.83012 10.076 7.76083 9.88408C7.45711 9.11954 7.15711 8.35311 6.85366 7.58803C6.01525 8.57737 5.39614 9.75938 5.07755 11.0211C6.04313 10.829 7.0103 10.6444 7.97667 10.4565Z" fill-rule="evenodd"  fill="#F0B000" >
    </path>
    <path d="M4.94321 14.812C6.00144 14.9892 7.05755 15.1797 8.11445 15.366C8.11392 13.9367 8.10861 12.5072 8.111 11.0776C7.05197 11.2858 5.99188 11.4884 4.93365 11.7001C4.74834 12.7266 4.75976 13.7858 4.94321 14.812Z" fill-rule="evenodd"  fill="#F0B000" >
    </path>
    <path d="M18.6755 15.3593C19.7321 15.1465 20.7906 14.9445 21.8489 14.7403C22.0374 13.7135 22.0297 12.6514 21.838 11.6254C20.7827 11.4456 19.7298 11.2515 18.6744 11.0712C18.6742 12.5005 18.6721 13.9297 18.6755 15.3593Z" fill-rule="evenodd"  fill="#F0B000" >
    </path>
    <path d="M18.8258 15.9619C18.8207 15.9737 18.8106 15.997 18.8056 16.0085C19.1823 16.9502 19.5511 17.8951 19.9244 18.8382C20.0491 18.7105 20.1537 18.5655 20.2618 18.4236C20.9311 17.5277 21.4265 16.499 21.705 15.4128C20.8698 15.5726 20.0353 15.7363 19.2009 15.9001C19.0764 15.9245 18.9527 15.9547 18.8258 15.9619Z" fill-rule="evenodd"  fill="#F0B000" >
    </path>
    <path d="M6.85286 18.8467C7.23144 17.8941 7.61268 16.9427 7.98728 15.9884C7.02065 15.8212 6.05481 15.6494 5.08897 15.4768C5.41711 16.7139 6.02507 17.8753 6.85286 18.8467Z" fill-rule="evenodd"  fill="#F0B000" >
    </path>
    <path d="M7.35197 19.3086C8.34728 18.911 9.34312 18.5146 10.3366 18.1122C9.73339 17.5138 9.13843 16.9066 8.53737 16.3058C8.1495 17.3096 7.74357 18.3064 7.35197 19.3086Z" fill-rule="evenodd"  fill="#F0B000" >
    </path>
    <path d="M16.4558 18.1081C17.4484 18.5063 18.4403 18.9064 19.4311 19.3086C19.0371 18.3046 18.6402 17.3016 18.2441 16.298C17.9353 16.6063 17.6295 16.9173 17.3221 17.2266C17.0343 17.5215 16.7364 17.8065 16.4558 18.1081Z" fill-rule="evenodd"  fill="#F0B000" >
    </path>
    <path d="M11.8873 21.7532C12.9041 21.9354 13.9512 21.9258 14.9669 21.743C15.0949 21.0159 15.2181 20.2881 15.345 19.5607C15.3983 19.2219 15.4724 18.8861 15.5128 18.5457C14.0975 18.5451 12.6821 18.5438 11.2671 18.5462C11.4792 19.614 11.6749 20.6854 11.8873 21.7532Z" fill-rule="evenodd"  fill="#F0B000" >
    </path>
    <path d="M7.81817 19.8117C8.79357 20.66 9.96596 21.2736 11.2114 21.6039C11.0356 20.6252 10.841 19.6501 10.6552 18.6733C10.2962 18.8077 9.94312 18.9575 9.58658 19.0983C8.9972 19.337 8.40489 19.5677 7.81817 19.8117Z" fill-rule="evenodd"  fill="#F0B000" >
    </path>
    <path d="M15.6338 21.5817C16.8588 21.2544 18.0094 20.6408 18.9691 19.8066C18.0264 19.424 17.0839 19.0402 16.1385 18.6637C15.9694 19.6362 15.8006 20.6087 15.6338 21.5817Z" fill-rule="evenodd"  fill="#F0B000" >
    </path>
    <path d="M13.0014 1.96503C11.5896 1.96503 10.4448 6.90561 10.4448 13C10.4448 19.0944 11.5896 24.035 13.0014 24.035C14.4131 24.035 15.5579 19.0944 15.5579 13C15.5579 6.90561 14.4131 1.96503 13.0014 1.96503ZM11.8797 21.387C11.8797 21.387 12.2048 22.7373 12.855 23.464C12.855 23.464 13.0164 23.6201 13.1779 23.4122C13.1779 23.4122 13.9362 22.7885 14.4777 19.8287C14.4777 19.8287 15.1811 15.934 15.0734 12.4549C15.0734 12.4549 15.1811 8.45625 13.9922 4.19807C13.9922 4.19807 13.5896 2.82554 13.1095 2.49735C13.0708 2.47087 13.0236 2.45829 12.9763 2.46182C12.929 2.46557 12.8845 2.48522 12.8507 2.51744C12.5199 2.83326 11.5476 4.25501 11.0132 10.2742C11.0132 10.2742 10.7425 17.8558 11.8797 21.387Z" fill-rule="evenodd"  fill="url(#linear_0)" >
    </path>
    <path d="M22.9176 7.50851C22.215 6.32648 17.2056 7.82733 11.7256 10.8603C6.2458 13.8932 2.38021 17.3103 3.08241 18.4919C3.78461 19.6733 8.7944 18.1731 14.2744 15.1401C19.7542 12.1072 23.6198 8.69007 22.9176 7.50851ZM7.5978 17.6353C7.5978 17.6353 11.448 16.2867 14.5214 14.4644C14.5214 14.4644 18.1688 12.5642 21.4022 9.44869C21.4022 9.44869 22.438 8.42902 22.4918 7.86365C22.4966 7.8179 22.4846 7.77204 22.4578 7.73395C22.431 7.69598 22.3912 7.66828 22.3452 7.6559C21.8982 7.53704 20.1354 7.42951 14.4606 9.97798C14.4606 9.97798 7.5116 13.5244 4.90261 16.2337C4.90261 16.2337 3.85241 17.1779 3.52241 18.0836C3.52241 18.0836 3.46161 18.297 3.73061 18.3298L3.73081 18.3298C3.73081 18.3298 4.66801 18.6542 7.5978 17.6353Z" fill-rule="evenodd"  fill="url(#linear_1)" opacity="1">
    </path>
    <path d="M20.3934 18.2386C20.3934 18.2386 21.8259 18.5906 22.3606 18.3543C22.4039 18.3353 22.4391 18.3023 22.4594 18.2609C22.48 18.2193 22.4846 18.1724 22.4726 18.1279C22.3547 17.6948 21.5681 16.1691 16.4392 12.7055C16.4392 12.7055 9.77765 8.6783 6.04173 7.85735C6.04173 7.85735 4.66851 7.45132 3.69098 7.62948C3.69098 7.62948 3.4701 7.68713 3.57465 7.9265L3.57545 7.92911C3.57545 7.92911 3.75444 8.87367 6.1381 10.8106C6.1381 10.8106 9.27522 13.3515 12.4477 15.0029C12.4477 15.0029 15.9785 17.096 20.3934 18.2386ZM11.7173 15.1379C17.1815 18.1934 22.184 19.7129 22.8916 18.5319C23.5998 17.3531 19.7437 13.9206 14.2828 10.865C8.82187 7.80943 3.8129 6.29017 3.10554 7.47101C2.39798 8.65173 6.25323 12.0823 11.7173 15.1379Z" fill-rule="evenodd"  fill="url(#linear_2)" >
    </path>
    <path d="M12.9728 11.6765C12.2296 11.6765 11.6271 12.2579 11.6271 12.9752C11.6271 13.6924 12.2296 14.2739 12.9728 14.2739C13.716 14.2739 14.3184 13.6924 14.3184 12.9752C14.3184 12.2579 13.716 11.6765 12.9728 11.6765Z"   fill="url(#linear_3)" >
    </path>
    <path d="M12 7.46503C13.4153 7.46476 14.0956 7.89444 15.5106 7.89364C15.3131 6.82268 15.1034 5.75359 14.8971 4.68424C13.88 4.49745 13.5163 4.49878 12.5 4.68423C12.3171 5.75091 12.1766 6.39728 12 7.46503Z" fill-rule="evenodd"  fill="#F0B000" >
    </path>
    <path d="M7.97664 10.4565C7.91956 10.2603 7.83009 10.076 7.7608 9.88408C7.45708 9.11953 6.80343 9.23011 6.49998 8.46503C5.66157 9.45436 5.39611 9.75938 5.07752 11.0211C6.0431 10.829 7.01027 10.6444 7.97664 10.4565Z" fill-rule="evenodd"  fill="#F0B000" >
    </path>
    <path d="M4.94323 14.812C6.00146 14.9892 7.05412 12.7788 8.11102 12.965C8.11049 11.5357 8.10863 12.5072 8.11102 11.0776C7.05199 11.2858 5.9919 11.4884 4.93367 11.7001C4.74836 12.7266 4.75978 13.7858 4.94323 14.812Z" fill-rule="evenodd"  fill="#F0B000" >
    </path>
    <path d="M16.4558 18.1081C17.4484 18.5063 18.4403 18.9064 19.4311 19.3086C19.0371 18.3045 18.6402 17.3016 18.2441 16.298C17.9353 16.6063 17.6295 16.9173 17.322 17.2266C17.0343 17.5215 16.7364 17.8065 16.4558 18.1081Z" fill-rule="evenodd"  fill="#F0B000" >
    </path>
    <path d="M18.8258 15.9619C18.8207 15.9737 18.8107 15.997 18.8056 16.0085C19.1823 16.9502 19.5511 17.8951 19.9244 18.8382C20.0492 18.7105 20.1538 18.5655 20.2618 18.4236C20.9311 17.5277 20.7215 17.5512 21 16.465C20.1648 16.6248 20.0353 15.7364 19.2009 15.9001C19.0764 15.9245 18.9527 15.9547 18.8258 15.9619Z" fill-rule="evenodd"  fill="#F0B000" >
    </path>
    <path d="M6.85286 18.8468C7.23144 17.8941 7.61268 16.9427 7.98728 15.9885C7.02065 15.8212 6.46585 16.1611 5.50001 15.9885C5.82815 17.2256 6.02507 17.8753 6.85286 18.8468Z" fill-rule="evenodd"  fill="#F0B000" >
    </path>
    <path d="M18.9546 10.0329C18.9031 10.1715 18.8372 10.3053 18.8001 10.4493C19.7632 10.6149 20.7262 10.7822 21.688 10.9569C21.362 9.71951 21.3294 9.43456 20.5 8.46503C20.1769 9.28015 19.2779 9.21775 18.9546 10.0329Z" fill-rule="evenodd"  fill="#F0B000" >
    </path>
    <path d="M7.352 19.3086C8.34731 18.911 9.34315 18.5146 10.3366 18.1122C9.73341 17.5138 9.13846 16.9066 8.5374 16.3058C8.14952 17.3096 7.74359 18.3064 7.352 19.3086Z" fill-rule="evenodd"  fill="#F0B000" >
    </path>
    <path d="M12.5 21.743C13.5168 21.9253 13.9512 21.9258 14.9669 21.743C15.0949 21.016 15.2181 20.2881 15.345 19.5607C15.3983 19.2219 15.4724 18.8861 15.5128 18.5457C14.0975 18.5452 13.3023 18.5433 11.8873 18.5457C12.0994 19.6134 12.2876 20.6753 12.5 21.743Z" fill-rule="evenodd"  fill="#F0B000" >
    </path>
    <path d="M18.6745 13.465C19.7311 13.2523 20.7906 14.9445 21.8489 14.7403C22.0374 13.7135 22.0297 12.6514 21.838 11.6254C20.7827 11.4455 19.7298 11.2515 18.6745 11.0712C18.6742 12.5004 18.671 12.0355 18.6745 13.465Z" fill-rule="evenodd"  fill="#F0B000" >
    </path>
    <defs>
        <radialGradient id="linear_0" cx="0" cy="0" r="0.49999947455008215" gradientTransform="translate(0.4999998585449777 0.49999947455008215) rotate(90) scale(1, 1)" gradientUnits="objectBoundingBox">
            <stop offset="0" stop-color="#FFFFFF" stop-opacity="100" />
            <stop offset="1" stop-color="#000000" stop-opacity="100" />
        </radialGradient>
        <radialGradient id="linear_1" cx="0" cy="0" r="0.4999984041275515" gradientTransform="translate(0.49999962060510966 0.49999981934001225) rotate(90) scale(1, 1)" gradientUnits="objectBoundingBox">
            <stop offset="0" stop-color="#FFFFFF"  />
            <stop offset="1" stop-color="#000000"  />
        </radialGradient>
        <radialGradient id="linear_2" cx="0" cy="0" r="0.5000013180647215" gradientTransform="translate(0.49999657025953353 0.49999966137677576) rotate(90) scale(1, 1)" gradientUnits="objectBoundingBox">
            <stop offset="0" stop-color="#FFFFFF"  />
            <stop offset="1" stop-color="#000000"  />
        </radialGradient>
        <radialGradient id="linear_3" cx="0" cy="0" r="0.4999993937371867" gradientTransform="translate(0.5000007966845903 0.4999993937371867) rotate(90) scale(1, 1)" gradientUnits="objectBoundingBox">
            <stop offset="0.4278" stop-color="#F0B000"  />
            <stop offset="1" stop-color="#F0B000" stop-opacity="0" />
        </radialGradient>
    </defs>
</svg>
